# xmcd CD database file
#
# Track frame offsets:
#	150
#	31515
#	60213
#	99083
#	110420
#	140880
#	167950
#	181813
#
# Disc length: 2578 seconds
#
# Revision: 0
# Processed by: cddbd v1.5.2PL0 Copyright (c) Steve Scherf et al.
# Submitted via: CDex 1.70beta2
#
DISCID=5b0a1008
DTITLE=Jim Hall - Jazz Impressions Of Japan
DYEAR=1900
DGENRE=Jazz
TTITLE0=Light
TTITLE1=Careful
TTITLE2=Kyoto Bells
TTITLE3=Without Words
TTITLE4=Echo
TTITLE5=Young One,For Debra
TTITLE6=wo Special People
TTITLE7=Something For Now
EXTD=
EXTT0=
EXTT1=
EXTT2=
EXTT3=
EXTT4=
EXTT5=
EXTT6=
EXTT7=
PLAYORDER=
